<svg xmlns="http://www.w3.org/2000/svg" xmlns:xlink="http://www.w3.org/1999/xlink" width="500" zoomAndPan="magnify" viewBox="0 0 375 374.999991" height="500" preserveAspectRatio="xMidYMid meet" version="1.0"><defs><g/><clipPath id="05e46949dc"><path d="M 121 12.339844 L 220 12.339844 L 220 189 L 121 189 Z M 121 12.339844 " clip-rule="nonzero"/></clipPath><clipPath id="1be484af76"><path d="M 15.796875 64 L 139 64 L 139 196.839844 L 15.796875 196.839844 Z M 15.796875 64 " clip-rule="nonzero"/></clipPath><clipPath id="bc2cc5aac1"><path d="M 196.265625 33.746094 L 338.945312 33.746094 L 338.945312 103.738281 L 196.265625 103.738281 Z M 196.265625 33.746094 " clip-rule="nonzero"/></clipPath><clipPath id="613bc733b7"><path d="M 143.636719 97.699219 L 334.960938 97.699219 L 334.960938 196.832031 L 143.636719 196.832031 Z M 143.636719 97.699219 " clip-rule="nonzero"/></clipPath></defs><g clip-path="url(#05e46949dc)"><path fill="#e71f69" d="M 135.070312 188.355469 C 135.070312 188.355469 135.300781 135.320312 219.492188 65.457031 C 219.492188 65.457031 132.09375 126.128906 140.4375 12.335938 C 140.4375 12.335938 101.222656 91.382812 135.070312 188.355469 " fill-opacity="1" fill-rule="nonzero"/></g><path fill="#e71f69" d="M 177.972656 41.226562 C 187.027344 47.007812 189.292969 59.664062 183.035156 69.5 C 176.773438 79.335938 164.355469 82.621094 155.296875 76.84375 C 146.242188 71.0625 143.976562 58.402344 150.238281 48.566406 C 156.496094 38.734375 168.914062 35.445312 177.972656 41.226562 " fill-opacity="1" fill-rule="nonzero"/><g clip-path="url(#1be484af76)"><path fill="#f8b31a" d="M 138.152344 196.289062 C 138.152344 196.289062 100.503906 165.113281 99.960938 64.140625 C 99.960938 64.140625 92.082031 162.035156 15.902344 89.546875 C 15.902344 89.546875 49.28125 163.773438 138.152344 196.289062 " fill-opacity="1" fill-rule="nonzero"/></g><path fill="#f8b31a" d="M 58.425781 79.628906 C 67.835938 76.539062 78.179688 82.320312 81.523438 92.542969 C 84.871094 102.765625 79.953125 113.554688 70.542969 116.644531 C 61.128906 119.734375 50.785156 113.953125 47.441406 103.730469 C 44.09375 93.511719 49.011719 82.71875 58.425781 79.628906 " fill-opacity="1" fill-rule="nonzero"/><path fill="#00a89f" d="M 317.289062 68.90625 L 260.019531 155.976562 C 197.367188 142.039062 157.441406 161.160156 151.253906 165.054688 C 151.253906 165.054688 206.847656 68.402344 317.289062 68.90625 " fill-opacity="1" fill-rule="nonzero"/><g clip-path="url(#bc2cc5aac1)"><path fill="#f8b31a" d="M 338.945312 33.902344 L 325.382812 54.527344 C 267.242188 53.515625 223.109375 80.695312 196.289062 103.707031 C 220.859375 75.628906 268.480469 34.996094 338.945312 33.902344 " fill-opacity="1" fill-rule="nonzero"/></g><path fill="#e71f69" d="M 326.898438 86.726562 L 268.4375 173.511719 C 198.382812 156.742188 154.460938 177.382812 147.433594 181.054688 L 149.570312 172.105469 C 162.441406 165.933594 204.902344 151.539062 267.09375 166.425781 L 321.316406 85.496094 C 323.164062 85.871094 325.027344 86.28125 326.898438 86.726562 " fill-opacity="1" fill-rule="nonzero"/><g clip-path="url(#613bc733b7)"><path fill="#00609e" d="M 334.945312 99.066406 L 274.617188 188.425781 C 197.566406 169.980469 149.964844 193.445312 143.667969 196.832031 L 145.792969 187.921875 C 159.265625 181.347656 205.148438 165.3125 272.980469 181.550781 L 329.242188 97.808594 C 331.128906 98.191406 333.035156 98.609375 334.945312 99.066406 " fill-opacity="1" fill-rule="nonzero"/></g><g fill="#203340" fill-opacity="1"><g transform="translate(38.581115, 266.768284)"><g><path d="M 33.203125 -18.1875 L 18.8125 -36.640625 L 18.8125 0 L 7.421875 0 L 7.421875 -60.046875 L 14.65625 -60.046875 L 34.96875 -32.3125 L 53.421875 -60.046875 L 60.390625 -60.046875 L 60.390625 0 L 48.828125 0 L 48.828125 -34.609375 L 37.609375 -18.8125 Z M 33.203125 -18.1875 "/></g></g></g><g fill="#203340" fill-opacity="1"><g transform="translate(115.669597, 266.768284)"><g><path d="M 7.328125 -13.25 C 9.148438 -12.300781 11.472656 -11.351562 14.296875 -10.40625 C 17.128906 -9.46875 19.8125 -9 22.34375 -9 C 25.925781 -9 28.613281 -9.554688 30.40625 -10.671875 C 32.207031 -11.796875 33.109375 -13.421875 33.109375 -15.546875 C 33.109375 -17.546875 31.914062 -19.320312 29.53125 -20.875 C 27.144531 -22.4375 24.507812 -23.953125 21.625 -25.421875 C 17.394531 -27.609375 13.347656 -30.15625 9.484375 -33.0625 C 5.628906 -35.976562 3.703125 -40.085938 3.703125 -45.390625 C 3.703125 -49.921875 5.5 -53.726562 9.09375 -56.8125 C 12.6875 -59.90625 17.78125 -61.453125 24.375 -61.453125 C 27.375 -61.453125 30.375 -60.976562 33.375 -60.03125 C 36.375 -59.09375 39.023438 -58.066406 41.328125 -56.953125 L 37.53125 -47.765625 C 35.695312 -48.648438 33.722656 -49.488281 31.609375 -50.28125 C 29.492188 -51.082031 27.140625 -51.484375 24.546875 -51.484375 C 22.015625 -51.484375 19.878906 -50.976562 18.140625 -49.96875 C 16.410156 -48.96875 15.546875 -47.441406 15.546875 -45.390625 C 15.546875 -43.210938 16.585938 -41.398438 18.671875 -39.953125 C 20.765625 -38.515625 23.28125 -37.054688 26.21875 -35.578125 L 26.84375 -35.234375 C 31.082031 -33.054688 35.15625 -30.476562 39.0625 -27.5 C 42.976562 -24.53125 44.9375 -20.484375 44.9375 -15.359375 C 44.9375 -10.597656 43.007812 -6.65625 39.15625 -3.53125 C 35.300781 -0.414062 29.753906 1.140625 22.515625 1.140625 C 19.984375 1.140625 16.726562 0.582031 12.75 -0.53125 C 8.78125 -1.644531 6.117188 -2.789062 4.765625 -3.96875 Z M 7.328125 -13.25 "/></g></g></g><g fill="#203340" fill-opacity="1"><g transform="translate(173.773122, 266.768284)"><g><path d="M 33.203125 -18.1875 L 18.8125 -36.640625 L 18.8125 0 L 7.421875 0 L 7.421875 -60.046875 L 14.65625 -60.046875 L 34.96875 -32.3125 L 53.421875 -60.046875 L 60.390625 -60.046875 L 60.390625 0 L 48.828125 0 L 48.828125 -34.609375 L 37.609375 -18.8125 Z M 33.203125 -18.1875 "/></g></g></g><g fill="#203340" fill-opacity="1"><g transform="translate(250.861609, 266.768284)"><g><path d="M 25.875 -50.5 L 18.8125 -50.5 L 18.8125 -32.140625 L 26.046875 -32.140625 C 29.460938 -32.140625 32.285156 -32.832031 34.515625 -34.21875 C 36.753906 -35.601562 37.875 -37.882812 37.875 -41.0625 C 37.875 -44.414062 36.8125 -46.828125 34.6875 -48.296875 C 32.570312 -49.765625 29.632812 -50.5 25.875 -50.5 Z M 42.296875 0 L 29.578125 -22.953125 C 28.929688 -22.898438 28.253906 -22.859375 27.546875 -22.828125 C 26.835938 -22.796875 26.128906 -22.78125 25.421875 -22.78125 L 18.8125 -22.78125 L 18.8125 0 L 7.421875 0 L 7.421875 -60.046875 L 26.21875 -60.046875 C 32.757812 -60.046875 38.351562 -58.539062 43 -55.53125 C 47.644531 -52.53125 49.96875 -47.882812 49.96875 -41.59375 C 49.96875 -37.882812 49.007812 -34.6875 47.09375 -32 C 45.1875 -29.320312 42.734375 -27.25 39.734375 -25.78125 L 54.484375 0 Z M 42.296875 0 "/></g></g></g><g fill="#203340" fill-opacity="1"><g transform="translate(315.577458, 266.768284)"><g/></g></g><g fill="#203340" fill-opacity="1"><g transform="translate(27.508124, 306.503187)"><g><path d="M 2.28125 -3.171875 C 2.800781 -2.910156 3.5 -2.644531 4.375 -2.375 C 5.257812 -2.101562 6.128906 -1.96875 6.984375 -1.96875 C 8.359375 -1.96875 9.398438 -2.21875 10.109375 -2.71875 C 10.816406 -3.226562 11.171875 -3.894531 11.171875 -4.71875 C 11.171875 -6.601562 9.523438 -8 6.234375 -8.90625 C 2.953125 -9.820312 1.3125 -11.71875 1.3125 -14.59375 C 1.3125 -15.976562 1.867188 -17.148438 2.984375 -18.109375 C 4.097656 -19.066406 5.628906 -19.546875 7.578125 -19.546875 C 8.535156 -19.546875 9.457031 -19.410156 10.34375 -19.140625 C 11.238281 -18.878906 12.003906 -18.59375 12.640625 -18.28125 C 12.503906 -17.925781 12.351562 -17.566406 12.1875 -17.203125 C 12.019531 -16.847656 11.867188 -16.492188 11.734375 -16.140625 C 11.242188 -16.390625 10.6875 -16.617188 10.0625 -16.828125 C 9.4375 -17.046875 8.675781 -17.15625 7.78125 -17.15625 C 6.707031 -17.15625 5.8125 -16.945312 5.09375 -16.53125 C 4.375 -16.125 4.015625 -15.5 4.015625 -14.65625 C 4.015625 -12.726562 5.660156 -11.296875 8.953125 -10.359375 C 12.253906 -9.421875 13.90625 -7.554688 13.90625 -4.765625 C 13.90625 -3.273438 13.304688 -2.046875 12.109375 -1.078125 C 10.921875 -0.117188 9.222656 0.359375 7.015625 0.359375 C 6.210938 0.359375 5.210938 0.210938 4.015625 -0.078125 C 2.816406 -0.378906 2.03125 -0.695312 1.65625 -1.03125 C 1.75 -1.394531 1.847656 -1.753906 1.953125 -2.109375 C 2.054688 -2.460938 2.164062 -2.816406 2.28125 -3.171875 Z M 2.28125 -3.171875 "/></g></g></g><g fill="#203340" fill-opacity="1"><g transform="translate(48.872875, 306.503187)"><g><path d="M 7.890625 -11.6875 C 6.617188 -11.6875 5.664062 -11.222656 5.03125 -10.296875 C 4.40625 -9.367188 4.085938 -8.21875 4.078125 -6.84375 C 4.078125 -5.425781 4.375 -4.253906 4.96875 -3.328125 C 5.570312 -2.398438 6.519531 -1.9375 7.8125 -1.9375 C 8.632812 -1.9375 9.28125 -2.019531 9.75 -2.1875 C 10.226562 -2.351562 10.757812 -2.578125 11.34375 -2.859375 L 12.15625 -0.921875 C 11.5625 -0.515625 10.832031 -0.203125 9.96875 0.015625 C 9.101562 0.242188 8.382812 0.359375 7.8125 0.359375 C 5.707031 0.359375 4.097656 -0.300781 2.984375 -1.625 C 1.867188 -2.957031 1.3125 -4.691406 1.3125 -6.828125 C 1.332031 -8.941406 1.910156 -10.660156 3.046875 -11.984375 C 4.179688 -13.316406 5.804688 -13.984375 7.921875 -13.984375 C 8.484375 -13.984375 9.1875 -13.863281 10.03125 -13.625 C 10.882812 -13.394531 11.613281 -13.070312 12.21875 -12.65625 L 11.421875 -10.75 C 10.847656 -11 10.316406 -11.21875 9.828125 -11.40625 C 9.335938 -11.59375 8.691406 -11.6875 7.890625 -11.6875 Z M 7.890625 -11.6875 "/></g></g></g><g fill="#203340" fill-opacity="1"><g transform="translate(68.328788, 306.503187)"><g><path d="M 4.828125 -12.125 C 5.410156 -12.6875 6.117188 -13.148438 6.953125 -13.515625 C 7.785156 -13.878906 8.566406 -14.0625 9.296875 -14.0625 C 10.960938 -14.0625 12.171875 -13.578125 12.921875 -12.609375 C 13.679688 -11.648438 14.0625 -10.441406 14.0625 -8.984375 L 14.0625 0 L 11.375 0 L 11.375 -8.734375 C 11.375 -9.648438 11.148438 -10.378906 10.703125 -10.921875 C 10.265625 -11.460938 9.597656 -11.742188 8.703125 -11.765625 C 8.140625 -11.765625 7.488281 -11.585938 6.75 -11.234375 C 6.007812 -10.878906 5.367188 -10.410156 4.828125 -9.828125 L 4.828125 0 L 2.140625 0 L 2.140625 -19.515625 L 4.828125 -19.828125 Z M 4.828125 -12.125 "/></g></g></g><g fill="#203340" fill-opacity="1"><g transform="translate(90.423406, 306.503187)"><g><path d="M 7.609375 0.359375 C 5.546875 0.347656 3.976562 -0.320312 2.90625 -1.65625 C 1.84375 -3 1.3125 -4.726562 1.3125 -6.84375 C 1.332031 -8.945312 1.910156 -10.65625 3.046875 -11.96875 C 4.191406 -13.289062 5.796875 -13.960938 7.859375 -13.984375 C 9.992188 -13.984375 11.609375 -13.300781 12.703125 -11.9375 C 13.796875 -10.582031 14.34375 -8.835938 14.34375 -6.703125 C 14.34375 -4.585938 13.742188 -2.882812 12.546875 -1.59375 C 11.347656 -0.300781 9.703125 0.347656 7.609375 0.359375 Z M 11.625 -6.703125 C 11.625 -8.171875 11.332031 -9.367188 10.75 -10.296875 C 10.175781 -11.222656 9.242188 -11.6875 7.953125 -11.6875 C 6.660156 -11.6875 5.691406 -11.25 5.046875 -10.375 C 4.410156 -9.5 4.085938 -8.332031 4.078125 -6.875 C 4.078125 -5.363281 4.351562 -4.160156 4.90625 -3.265625 C 5.457031 -2.378906 6.378906 -1.9375 7.671875 -1.9375 C 8.941406 -1.9375 9.910156 -2.359375 10.578125 -3.203125 C 11.253906 -4.046875 11.601562 -5.210938 11.625 -6.703125 Z M 11.625 -6.703125 "/></g></g></g><g fill="#203340" fill-opacity="1"><g transform="translate(112.265374, 306.503187)"><g><path d="M 7.609375 0.359375 C 5.546875 0.347656 3.976562 -0.320312 2.90625 -1.65625 C 1.84375 -3 1.3125 -4.726562 1.3125 -6.84375 C 1.332031 -8.945312 1.910156 -10.65625 3.046875 -11.96875 C 4.191406 -13.289062 5.796875 -13.960938 7.859375 -13.984375 C 9.992188 -13.984375 11.609375 -13.300781 12.703125 -11.9375 C 13.796875 -10.582031 14.34375 -8.835938 14.34375 -6.703125 C 14.34375 -4.585938 13.742188 -2.882812 12.546875 -1.59375 C 11.347656 -0.300781 9.703125 0.347656 7.609375 0.359375 Z M 11.625 -6.703125 C 11.625 -8.171875 11.332031 -9.367188 10.75 -10.296875 C 10.175781 -11.222656 9.242188 -11.6875 7.953125 -11.6875 C 6.660156 -11.6875 5.691406 -11.25 5.046875 -10.375 C 4.410156 -9.5 4.085938 -8.332031 4.078125 -6.875 C 4.078125 -5.363281 4.351562 -4.160156 4.90625 -3.265625 C 5.457031 -2.378906 6.378906 -1.9375 7.671875 -1.9375 C 8.941406 -1.9375 9.910156 -2.359375 10.578125 -3.203125 C 11.253906 -4.046875 11.601562 -5.210938 11.625 -6.703125 Z M 11.625 -6.703125 "/></g></g></g><g fill="#203340" fill-opacity="1"><g transform="translate(134.107342, 306.503187)"><g><path d="M 2.140625 0 L 2.140625 -19.515625 L 4.828125 -19.828125 L 4.828125 0 Z M 2.140625 0 "/></g></g></g><g fill="#203340" fill-opacity="1"><g transform="translate(147.219176, 306.503187)"><g/></g></g><g fill="#203340" fill-opacity="1"><g transform="translate(159.994149, 306.503187)"><g><path d="M 4.234375 -6.03125 C 4.234375 -4.632812 4.703125 -3.613281 5.640625 -2.96875 C 6.578125 -2.332031 7.617188 -2.015625 8.765625 -2.015625 C 9.585938 -2.015625 10.332031 -2.148438 11 -2.421875 C 11.675781 -2.691406 12.257812 -3.070312 12.75 -3.5625 L 7.25 -8.59375 L 5.984375 -9.765625 C 5.441406 -9.359375 5.019531 -8.832031 4.71875 -8.1875 C 4.414062 -7.539062 4.253906 -6.820312 4.234375 -6.03125 Z M 12.859375 -16.140625 C 12.335938 -16.390625 11.796875 -16.628906 11.234375 -16.859375 C 10.671875 -17.097656 9.945312 -17.21875 9.0625 -17.21875 C 8.1875 -17.21875 7.5 -16.941406 7 -16.390625 C 6.507812 -15.847656 6.265625 -15.234375 6.265625 -14.546875 C 6.265625 -13.753906 6.484375 -13.0625 6.921875 -12.46875 C 7.359375 -11.882812 8.019531 -11.191406 8.90625 -10.390625 L 14.09375 -5.5625 C 14.394531 -6.195312 14.632812 -6.898438 14.8125 -7.671875 C 14.988281 -8.453125 15.101562 -9.285156 15.15625 -10.171875 L 17.46875 -9.265625 C 17.40625 -8.210938 17.257812 -7.222656 17.03125 -6.296875 C 16.8125 -5.367188 16.503906 -4.523438 16.109375 -3.765625 L 18.390625 -1.71875 L 16.875 0.21875 L 14.65625 -1.828125 C 13.96875 -1.128906 13.132812 -0.59375 12.15625 -0.21875 C 11.1875 0.15625 10.054688 0.34375 8.765625 0.34375 C 6.742188 0.320312 5.019531 -0.210938 3.59375 -1.265625 C 2.164062 -2.328125 1.453125 -3.898438 1.453125 -5.984375 C 1.472656 -7.117188 1.75 -8.179688 2.28125 -9.171875 C 2.820312 -10.171875 3.519531 -10.976562 4.375 -11.59375 C 4.113281 -11.988281 3.90625 -12.410156 3.75 -12.859375 C 3.601562 -13.304688 3.53125 -13.8125 3.53125 -14.375 C 3.53125 -15.757812 4.015625 -16.96875 4.984375 -18 C 5.960938 -19.03125 7.316406 -19.546875 9.046875 -19.546875 C 9.972656 -19.546875 10.828125 -19.410156 11.609375 -19.140625 C 12.398438 -18.878906 13.125 -18.59375 13.78125 -18.28125 Z M 12.859375 -16.140625 "/></g></g></g><g fill="#203340" fill-opacity="1"><g transform="translate(185.316954, 306.503187)"><g/></g></g><g fill="#203340" fill-opacity="1"><g transform="translate(198.091927, 306.503187)"><g><path d="M 14.34375 -16.390625 C 13.65625 -16.640625 13.035156 -16.832031 12.484375 -16.96875 C 11.929688 -17.113281 11.195312 -17.1875 10.28125 -17.1875 C 8.539062 -17.1875 7.164062 -16.472656 6.15625 -15.046875 C 5.144531 -13.628906 4.640625 -11.769531 4.640625 -9.46875 C 4.640625 -7.40625 5.066406 -5.628906 5.921875 -4.140625 C 6.785156 -2.648438 8.160156 -1.90625 10.046875 -1.90625 C 10.960938 -1.90625 11.757812 -1.984375 12.4375 -2.140625 C 13.113281 -2.304688 13.710938 -2.507812 14.234375 -2.75 L 15.28125 -0.734375 C 14.632812 -0.410156 13.820312 -0.144531 12.84375 0.0625 C 11.863281 0.28125 10.972656 0.390625 10.171875 0.390625 C 7.222656 0.390625 5.09375 -0.578125 3.78125 -2.515625 C 2.476562 -4.453125 1.828125 -6.757812 1.828125 -9.4375 C 1.828125 -12.300781 2.546875 -14.691406 3.984375 -16.609375 C 5.429688 -18.523438 7.546875 -19.484375 10.328125 -19.484375 C 10.890625 -19.484375 11.664062 -19.394531 12.65625 -19.21875 C 13.65625 -19.039062 14.5 -18.742188 15.1875 -18.328125 Z M 14.34375 -16.390625 "/></g></g></g><g fill="#203340" fill-opacity="1"><g transform="translate(220.972518, 306.503187)"><g><path d="M 7.609375 0.359375 C 5.546875 0.347656 3.976562 -0.320312 2.90625 -1.65625 C 1.84375 -3 1.3125 -4.726562 1.3125 -6.84375 C 1.332031 -8.945312 1.910156 -10.65625 3.046875 -11.96875 C 4.191406 -13.289062 5.796875 -13.960938 7.859375 -13.984375 C 9.992188 -13.984375 11.609375 -13.300781 12.703125 -11.9375 C 13.796875 -10.582031 14.34375 -8.835938 14.34375 -6.703125 C 14.34375 -4.585938 13.742188 -2.882812 12.546875 -1.59375 C 11.347656 -0.300781 9.703125 0.347656 7.609375 0.359375 Z M 11.625 -6.703125 C 11.625 -8.171875 11.332031 -9.367188 10.75 -10.296875 C 10.175781 -11.222656 9.242188 -11.6875 7.953125 -11.6875 C 6.660156 -11.6875 5.691406 -11.25 5.046875 -10.375 C 4.410156 -9.5 4.085938 -8.332031 4.078125 -6.875 C 4.078125 -5.363281 4.351562 -4.160156 4.90625 -3.265625 C 5.457031 -2.378906 6.378906 -1.9375 7.671875 -1.9375 C 8.941406 -1.9375 9.910156 -2.359375 10.578125 -3.203125 C 11.253906 -4.046875 11.601562 -5.210938 11.625 -6.703125 Z M 11.625 -6.703125 "/></g></g></g><g fill="#203340" fill-opacity="1"><g transform="translate(242.814486, 306.503187)"><g><path d="M 2.140625 0 L 2.140625 -19.515625 L 4.828125 -19.828125 L 4.828125 0 Z M 2.140625 0 "/></g></g></g><g fill="#203340" fill-opacity="1"><g transform="translate(255.92632, 306.503187)"><g><path d="M 2.140625 0 L 2.140625 -19.515625 L 4.828125 -19.828125 L 4.828125 0 Z M 2.140625 0 "/></g></g></g><g fill="#203340" fill-opacity="1"><g transform="translate(269.038153, 306.503187)"><g><path d="M 13.78125 -6.203125 L 4.125 -6.203125 C 4.21875 -4.953125 4.609375 -3.921875 5.296875 -3.109375 C 5.992188 -2.304688 7.035156 -1.90625 8.421875 -1.90625 C 9.222656 -1.90625 9.898438 -1.992188 10.453125 -2.171875 C 11.003906 -2.347656 11.5625 -2.566406 12.125 -2.828125 L 12.96875 -0.875 C 12.375 -0.457031 11.613281 -0.148438 10.6875 0.046875 C 9.757812 0.242188 9.003906 0.34375 8.421875 0.34375 C 6.140625 0.34375 4.382812 -0.316406 3.15625 -1.640625 C 1.925781 -2.960938 1.3125 -4.691406 1.3125 -6.828125 C 1.3125 -8.941406 1.882812 -10.660156 3.03125 -11.984375 C 4.1875 -13.316406 5.785156 -13.984375 7.828125 -13.984375 C 10.035156 -13.984375 11.578125 -13.207031 12.453125 -11.65625 C 13.335938 -10.101562 13.78125 -8.285156 13.78125 -6.203125 Z M 11.171875 -8.03125 C 11.003906 -9.15625 10.648438 -10.046875 10.109375 -10.703125 C 9.566406 -11.359375 8.78125 -11.6875 7.75 -11.6875 C 6.695312 -11.6875 5.867188 -11.351562 5.265625 -10.6875 C 4.671875 -10.019531 4.3125 -9.132812 4.1875 -8.03125 Z M 11.171875 -8.03125 "/></g></g></g><g fill="#203340" fill-opacity="1"><g transform="translate(290.150272, 306.503187)"><g><path d="M 11.0625 -10.4375 C 10.550781 -10.851562 10.019531 -11.175781 9.46875 -11.40625 C 8.914062 -11.644531 8.390625 -11.765625 7.890625 -11.765625 C 6.484375 -11.765625 5.492188 -11.265625 4.921875 -10.265625 C 4.359375 -9.273438 4.078125 -8.132812 4.078125 -6.84375 C 4.078125 -5.476562 4.347656 -4.316406 4.890625 -3.359375 C 5.429688 -2.410156 6.429688 -1.9375 7.890625 -1.9375 C 8.390625 -1.9375 8.914062 -2.050781 9.46875 -2.28125 C 10.019531 -2.519531 10.550781 -2.84375 11.0625 -3.25 Z M 13.78125 0.734375 C 13.78125 2.222656 13.265625 3.46875 12.234375 4.46875 C 11.210938 5.476562 9.648438 5.984375 7.546875 5.984375 C 6.972656 5.984375 6.179688 5.863281 5.171875 5.625 C 4.171875 5.394531 3.351562 5.066406 2.71875 4.640625 C 2.851562 4.316406 2.988281 3.988281 3.125 3.65625 C 3.269531 3.332031 3.40625 3.015625 3.53125 2.703125 C 4.1875 2.992188 4.800781 3.25 5.375 3.46875 C 5.945312 3.6875 6.644531 3.796875 7.46875 3.796875 C 8.59375 3.796875 9.472656 3.53125 10.109375 3 C 10.742188 2.476562 11.0625 1.710938 11.0625 0.703125 L 11.0625 -0.921875 C 10.5 -0.535156 9.878906 -0.226562 9.203125 0 C 8.535156 0.226562 7.910156 0.34375 7.328125 0.34375 C 5.347656 0.34375 3.847656 -0.332031 2.828125 -1.6875 C 1.816406 -3.050781 1.3125 -4.765625 1.3125 -6.828125 C 1.3125 -8.898438 1.832031 -10.625 2.875 -12 C 3.914062 -13.375 5.425781 -14.0625 7.40625 -14.0625 C 8.0625 -14.0625 8.773438 -13.90625 9.546875 -13.59375 C 10.328125 -13.289062 11.007812 -12.894531 11.59375 -12.40625 L 12.234375 -13.625 L 13.78125 -13.625 Z M 13.78125 0.734375 "/></g></g></g><g fill="#203340" fill-opacity="1"><g transform="translate(312.216821, 306.503187)"><g><path d="M 13.78125 -6.203125 L 4.125 -6.203125 C 4.21875 -4.953125 4.609375 -3.921875 5.296875 -3.109375 C 5.992188 -2.304688 7.035156 -1.90625 8.421875 -1.90625 C 9.222656 -1.90625 9.898438 -1.992188 10.453125 -2.171875 C 11.003906 -2.347656 11.5625 -2.566406 12.125 -2.828125 L 12.96875 -0.875 C 12.375 -0.457031 11.613281 -0.148438 10.6875 0.046875 C 9.757812 0.242188 9.003906 0.34375 8.421875 0.34375 C 6.140625 0.34375 4.382812 -0.316406 3.15625 -1.640625 C 1.925781 -2.960938 1.3125 -4.691406 1.3125 -6.828125 C 1.3125 -8.941406 1.882812 -10.660156 3.03125 -11.984375 C 4.1875 -13.316406 5.785156 -13.984375 7.828125 -13.984375 C 10.035156 -13.984375 11.578125 -13.207031 12.453125 -11.65625 C 13.335938 -10.101562 13.78125 -8.285156 13.78125 -6.203125 Z M 11.171875 -8.03125 C 11.003906 -9.15625 10.648438 -10.046875 10.109375 -10.703125 C 9.566406 -11.359375 8.78125 -11.6875 7.75 -11.6875 C 6.695312 -11.6875 5.867188 -11.351562 5.265625 -10.6875 C 4.671875 -10.019531 4.3125 -9.132812 4.1875 -8.03125 Z M 11.171875 -8.03125 "/></g></g></g></svg>